<svg width="16" height="16" viewBox="0 0 16 16" fill="none" xmlns="http://www.w3.org/2000/svg">
<path fill-rule="evenodd" clip-rule="evenodd" d="M9 14L9 15L7 15L6 15L3 15L2 15L2 14L2 11L2 10L2 7L2 6L2 3L2 2L3 2L6 2L7 2L14 2L15 2L15 3L15 6L15 7L15 9L14 9L14 7L11 7L11 9L10 9L10 7L7 7L7 10L9 10L9 11L7 11L7 14L9 14ZM14 6L11 6L11 3L14 3L14 6ZM7 3L10 3L10 6L7 6L7 3ZM3 3L3 6L6 6L6 3L3 3ZM3 7L3 10L6 10L6 7L3 7ZM3 11L3 14L6 14L6 11L3 11ZM14.292 10L15 10.7077L13.207 12.4999L15 14.292L14.2922 15L12.5 13.2069L10.7077 15L10 14.292L11.793 12.4999L10 10.7078L10.708 10L12.5 11.7929L14.292 10Z" fill="currentColor"/>
</svg>
