<svg width="16" height="12" viewBox="0 0 16 12" fill="none" xmlns="http://www.w3.org/2000/svg">
<path d="M2 0.707046L13.2929 12L14 11.2929L2.70705 0L2 0.707046Z" fill="currentColor"/>
<path d="M0.581543 5.99999C1.06648 4.80201 1.83317 3.74823 2.79944 2.92083L3.50889 3.63027C2.73879 4.27498 2.1093 5.0824 1.67338 5.99999C2.79758 8.3664 5.20911 10 8.00003 10C8.57782 10 9.13935 9.92999 9.67657 9.79795L10.4851 10.6065C9.70287 10.8619 8.86758 11 8.00003 11C4.64265 11 1.76831 8.93183 0.581543 5.99999Z" fill="currentColor"/>
<path d="M6.32325 2.20211L5.51471 1.39357C6.29703 1.13812 7.13239 1 8.00002 1C11.3574 1 14.2317 3.06818 15.4185 6.00001C14.9335 7.19806 14.1668 8.25189 13.2004 9.07931L12.491 8.36986C13.2612 7.72513 13.8907 6.91767 14.3267 6.00001C13.2025 3.6336 10.7909 2 8.00002 2C7.42214 2 6.86053 2.07004 6.32325 2.20211Z" fill="currentColor"/>
<path d="M11 6C11 6.26879 10.9647 6.52933 10.8983 6.77721L9.99616 5.87502C9.93419 4.87 9.13 4.06581 8.12498 4.00384L7.22279 3.10165C7.47067 3.03535 7.73121 3 8 3C9.65685 3 11 4.34315 11 6Z" fill="currentColor"/>
<path d="M5.1016 5.22298L6.00386 6.12524C6.06594 7.13005 6.86995 7.93406 7.87476 7.99614L8.77702 8.8984C8.52919 8.96467 8.26872 9 8 9C6.34315 9 5 7.65685 5 6C5 5.73128 5.03533 5.47081 5.1016 5.22298Z" fill="currentColor"/>
</svg>
