<svg width="16" height="16" viewBox="0 0 16 16" fill="none" xmlns="http://www.w3.org/2000/svg">
<g clip-path="url(#clip0_37_11710)">
<path fill-rule="evenodd" clip-rule="evenodd" d="M0.999999 3L0.999999 4L3 4L3 6L4 6L4 4L6 4L6 3L4 3L4 0.999999L3 0.999999L3 3L0.999999 3ZM6 9L6 16L1 16L1 8L2 8L6 8L10 8L11 8L15 8L16 8L16 9L16 16L15 16L15 9L11 9L11 16L10 16L10 9L6 9Z" fill="currentColor"/>
</g>
<defs>
<clipPath id="clip0_37_11710">
<rect width="16" height="16" fill="white"/>
</clipPath>
</defs>
</svg>
