<svg width="16" height="16" viewBox="0 0 16 16" fill="none" xmlns="http://www.w3.org/2000/svg">
<g id="icon">
<path id="Vector" fill-rule="evenodd" clip-rule="evenodd" d="M3 2H13C13.5523 2 14 2.44772 14 3V13C14 13.5523 13.5523 14 13 14H3C2.44772 14 2 13.5523 2 13V3C2 2.44772 2.44772 2 3 2ZM1 3C1 1.89543 1.89543 1 3 1H13C14.1046 1 15 1.89543 15 3V13C15 14.1046 14.1046 15 13 15H3C1.89543 15 1 14.1046 1 13V3ZM12 11.292L11.2923 12L8.00011 8.70699L4.70796 12L4 11.2922L7.29311 7.99999L4 4.70774L4.70798 4L8.00011 7.29299L11.2922 4L12 4.70796L8.70711 7.99999L12 11.292Z" fill="currentColor" fill-opacity="0.85"/>
</g>
</svg>
