<svg width="20" height="20" viewBox="0 0 20 20" fill="none" xmlns="http://www.w3.org/2000/svg">
<path fill-rule="evenodd" clip-rule="evenodd" d="M10.3377 10.0105L7 2H5L0 14H2.16667L3.41667 11H8.58333L8.80831 11.5399L10.3377 10.0105ZM6 4.8L4.04167 9.5H7.95833L6 4.8ZM14.6161 7.5C15.1043 7.01184 15.8957 7.01185 16.3839 7.5L19.5 10.6161C19.9882 11.1043 19.9882 11.8957 19.5 12.3839L13.3839 18.5C12.8957 18.9882 12.1043 18.9882 11.6161 18.5L8.5 15.3839C8.01184 14.8957 8.01185 14.1043 8.5 13.6161L14.6161 7.5ZM11 12.8839L9.38388 14.5L12.5 17.6161L14.1161 16L11 12.8839ZM11.8839 12L15 15.1161L18.6161 11.5L15.5 8.38388L11.8839 12Z" fill="currentColor"/>
</svg>
