<svg width="20" height="20" viewBox="0 0 20 20" fill="none" xmlns="http://www.w3.org/2000/svg">
<path fill-rule="evenodd" clip-rule="evenodd" d="M13.3839 1.5C12.8957 1.01184 12.1043 1.01184 11.6161 1.5L4.5 8.61611C4.01185 9.10427 4.01184 9.89572 4.5 10.3839L5.05806 10.9419L2 14H6L7.05806 12.9419L7.61612 13.5C8.10427 13.9882 8.89573 13.9882 9.38388 13.5L16.5 6.38388C16.9882 5.89573 16.9882 5.10427 16.5 4.61611L13.3839 1.5ZM9.38388 5.5L12.5 2.38388L15.6161 5.5L12.5 8.61611L9.38388 5.5ZM8.5 6.38388L5.38388 9.5L8.5 12.6161L11.6161 9.5L8.5 6.38388ZM2.25 16.25H17.75V17.75H2.25V16.25ZM1 19V15H19V19H1Z" fill="currentColor"/>
</svg>
