<svg width="24px" height="24px" version="1.1" viewBox="0 0 24 24" xmlns="http://www.w3.org/2000/svg">
    <path fill="currentColor" stroke-width="2" d="m15.6 8.65c0.485 0 0.679 0 0.679-0.419 0-0.22-0.194-0.22-0.63-0.22h-1.96c0.461-2.27 0.8-3.83 0.994-4.54 0.145-0.529 0.655-1.04 1.28-1.04 0.509 0 1.02 0.198 1.26 0.396-0.945 0.0881-1.24 0.727-1.24 1.1 0 0.441 0.364 0.705 0.824 0.705 0.485 0 1.21-0.374 1.21-1.21 0-0.925-1.02-1.43-2.08-1.43-1.04 0-2.06 0.705-2.55 1.56-0.436 0.771-0.679 1.56-1.24 4.45h-1.62c-0.461 0-0.703 0-0.703 0.396 0 0.242 0.145 0.242 0.63 0.242h1.55c-0.436 2.05-1.43 7.03-1.99 9.38-0.412 1.92-0.776 3.52-1.99 3.52-0.0727 0-0.776 0-1.21-0.419 1.24-0.0881 1.24-1.06 1.24-1.08 0-0.441-0.364-0.705-0.824-0.705-0.485 0-1.21 0.374-1.21 1.21 0 0.947 1.07 1.43 2.01 1.43 2.47 0 3.49-4.03 3.76-5.13 0.436-1.7 1.62-7.56 1.75-8.22z" />
</svg>
