<svg width="24px" height="24px" viewBox="0 0 24 24" version="1.1" xmlns="http://www.w3.org/2000/svg">
    <g id="text-color" fill-rule="evenodd">
        <rect x="4.7356" y="4.7356" width="14.529" height="14.529" rx="4.8515" ry="4.8515" fill="none"
              image-rendering="auto" stroke="currentColor" stroke-linecap="round" stroke-width="1.4712"/>
        <path
                d="m15.79 9.2265-2.764 2.7735 2.764 2.7735c0.27995 0.28091 0.27956 0.73546-8e-4 1.0159-0.28043 0.28044-0.73498 0.28082-1.0159 8e-4l-2.7736-2.764-2.7735 2.764c-0.28091 0.27995-0.73546 0.27956-1.0159-8e-4 -0.28043-0.28043-0.28082-0.73498-8.72e-4 -1.0159l2.764-2.7736-2.764-2.7735c-0.27995-0.28091-0.27956-0.73547 8.736e-4 -1.0159 0.28043-0.28043 0.73498-0.28082 1.0159-8.662e-4l2.7735 2.764 2.7735-2.764c0.28091-0.27995 0.73546-0.27956 1.0159 8.64e-4 0.28043 0.28043 0.28082 0.73498 8e-4 1.0159z" fill="currentColor" fill-rule="evenodd"/></g>
</svg>
